<svg width="300" height="300" viewBox="0 0 300 300" fill="none" xmlns="http://www.w3.org/2000/svg">
<path d="M267.857 131.25H251.786V89.0625C251.786 39.9609 206.116 0 150 0C93.8839 0 48.2143 39.9609 48.2143 89.0625V131.25H32.1429C14.3973 131.25 0 143.848 0 159.375V271.875C0 287.402 14.3973 300 32.1429 300H267.857C285.603 300 300 287.402 300 271.875V159.375C300 143.848 285.603 131.25 267.857 131.25ZM198.214 131.25H101.786V89.0625C101.786 65.8008 123.415 46.875 150 46.875C176.585 46.875 198.214 65.8008 198.214 89.0625V131.25Z" fill="black"/>
</svg>
