<svg width="300" height="300" viewBox="0 0 300 300" fill="none" xmlns="http://www.w3.org/2000/svg">
<path d="M167.175 6.30241C162.533 2.2551 156.388 0 150 0C143.612 0 137.467 2.2551 132.825 6.30241L11.725 111.856C8.01706 115.093 5.06455 118.993 3.04841 123.318C1.03228 127.644 -0.0050393 132.303 1.84063e-05 137.011V265.438C0.00664593 274.606 3.96045 283.397 10.9923 289.878C18.0242 296.359 27.5587 300 37.5 300H75C84.9456 300 94.4839 296.356 101.517 289.87C108.549 283.384 112.5 274.587 112.5 265.415V207.773C112.5 204.715 113.817 201.783 116.161 199.621C118.505 197.459 121.685 196.244 125 196.244H175C178.315 196.244 181.495 197.459 183.839 199.621C186.183 201.783 187.5 204.715 187.5 207.773V265.415C187.5 274.587 191.451 283.384 198.483 289.87C205.516 296.356 215.054 300 225 300H262.5C272.446 300 281.984 296.356 289.017 289.87C296.049 283.384 300 274.587 300 265.415V136.988C299.998 132.282 298.956 127.626 296.935 123.305C294.915 118.984 291.959 115.088 288.25 111.856L167.175 6.25629V6.30241Z" fill="black"/>
</svg>
