<svg width="300" height="300" viewBox="0 0 300 300" fill="none" xmlns="http://www.w3.org/2000/svg">
<path d="M290.625 250H37.5V12.5C37.5 5.59375 33.3047 0 28.125 0H9.375C4.19531 0 0 5.59375 0 12.5V275C0 288.805 8.39648 300 18.75 300H290.625C295.805 300 300 294.406 300 287.5V262.5C300 255.594 295.805 250 290.625 250ZM271.875 25H202.699C190.172 25 183.896 45.1953 192.756 57.0078L211.74 82.3203L168.75 139.648L125.76 82.3281C118.436 72.5625 106.564 72.5625 99.2461 82.3281L58.998 135.992C55.3359 140.875 55.3359 148.789 58.998 153.672L72.252 171.344C75.9141 176.227 81.8496 176.227 85.5117 171.344L112.5 135.352L155.49 192.672C162.814 202.438 174.686 202.438 182.004 192.672L238.254 117.672L257.238 142.984C266.098 154.797 281.244 146.43 281.244 129.727V37.5C281.25 30.5938 277.055 25 271.875 25Z" fill="black"/>
</svg>
