<svg width="300" height="300" viewBox="0 0 300 300" fill="none" xmlns="http://www.w3.org/2000/svg">
<path d="M296.168 186.048L269.253 171.169C271.97 157.137 271.97 142.742 269.253 128.71L296.168 113.831C299.264 112.137 300.654 108.629 299.643 105.363C292.63 83.8309 280.689 64.3552 265.083 48.1455C262.682 45.6657 258.765 45.0609 255.732 46.7544L228.816 61.6334C217.507 52.3189 204.491 45.1214 190.402 40.4036V10.7062C190.402 7.31909 187.938 4.35539 184.463 3.62959C161.275 -1.33007 137.519 -1.08814 115.468 3.62959C111.993 4.35539 109.529 7.31909 109.529 10.7062V40.4641C95.503 45.2423 82.4876 52.4399 71.1149 61.6939L44.2627 46.8149C41.1668 45.1214 37.3127 45.6657 34.9118 48.206C19.3059 64.3552 7.36454 83.8309 0.351366 105.424C-0.722723 108.69 0.730456 112.198 3.82636 113.891L30.7418 128.77C28.025 142.802 28.025 157.198 30.7418 171.23L3.82636 186.109C0.730456 187.802 -0.659542 191.31 0.351366 194.576C7.36454 216.109 19.3059 235.584 34.9118 251.794C37.3127 254.274 41.2299 254.879 44.2627 253.185L71.1781 238.306C82.4876 247.621 95.503 254.818 109.593 259.536V289.294C109.593 292.681 112.057 295.645 115.532 296.37C138.719 301.33 162.476 301.088 184.526 296.37C188.001 295.645 190.465 292.681 190.465 289.294V259.536C204.491 254.758 217.507 247.56 228.88 238.306L255.795 253.185C258.891 254.879 262.745 254.334 265.146 251.794C280.752 235.645 292.693 216.169 299.706 194.576C300.654 191.25 299.264 187.742 296.168 186.048V186.048ZM149.966 198.326C122.103 198.326 99.4203 176.613 99.4203 149.94C99.4203 123.266 122.103 101.553 149.966 101.553C177.829 101.553 200.511 123.266 200.511 149.94C200.511 176.613 177.829 198.326 149.966 198.326Z" fill="black"/>
</svg>
