<svg width="300" height="300" viewBox="0 0 300 300" fill="none" xmlns="http://www.w3.org/2000/svg">
<path d="M150 150C197.344 150 235.714 116.426 235.714 75C235.714 33.5742 197.344 0 150 0C102.656 0 64.2857 33.5742 64.2857 75C64.2857 116.426 102.656 150 150 150ZM210 168.75H198.817C183.951 174.727 167.411 178.125 150 178.125C132.589 178.125 116.116 174.727 101.183 168.75H90C40.3125 168.75 0 204.023 0 247.5V271.875C0 287.402 14.3973 300 32.1429 300H267.857C285.603 300 300 287.402 300 271.875V247.5C300 204.023 259.688 168.75 210 168.75Z" fill="black"/>
</svg>
